<svg xmlns="http://www.w3.org/2000/svg" width="800" height="800" style="isolation:isolate"><defs><clipPath id="a"><path d="M0 0h800v800H0z"/></clipPath></defs><g clip-path="url(#a)"><path fill="#25D366" d="M787.59 800H12.41C5.56 800 0 793.33 0 785.1V14.9C0 6.66 5.56 0 12.41 0h775.18C794.44 0 800 6.67 800 14.9v770.2c0 8.23-5.56 14.9-12.41 14.9z"/><path fill="#FFF" fill-rule="evenodd" d="M508.56 450.43c-5.89-2.95-34.84-17.19-40.24-19.16-5.4-1.96-9.32-2.94-13.24 2.95-3.93 5.9-15.21 19.16-18.65 23.09-3.43 3.93-6.87 4.42-12.75 1.47-5.89-2.95-24.86-9.16-47.35-29.22-17.5-15.62-29.32-34.9-32.76-40.8-3.43-5.89-.36-9.07 2.58-12 2.65-2.65 5.9-6.89 8.84-10.32 2.94-3.44 3.92-5.9 5.88-9.83 1.97-3.93.99-7.36-.49-10.31-1.47-2.95-13.24-31.93-18.15-43.72-4.78-11.48-9.63-9.93-13.25-10.1-3.43-.18-7.36-.22-11.28-.22-3.93 0-10.3 1.48-15.7 7.37-5.4 5.9-20.61 20.14-20.61 49.12 0 28.99 21.1 56.98 24.04 60.91 2.95 3.93 41.52 63.4 100.58 88.9a337.86 337.86 0 0033.57 12.4c14.1 4.5 26.94 3.86 37.09 2.34 11.3-1.69 34.83-14.24 39.74-28 4.9-13.75 4.9-25.54 3.43-28-1.47-2.45-5.4-3.92-11.28-6.87zM401.13 597.12h-.08a195.56 195.56 0 01-99.69-27.3l-7.15-4.25-74.13 19.45 19.79-72.28-4.66-7.4a195.38 195.38 0 01-29.95-104.24c.05-107.99 87.91-195.84 195.94-195.84a194.53 194.53 0 01138.47 57.44 194.67 194.67 0 0157.31 138.56c-.04 108-87.9 195.86-195.85 195.86zm166.69-362.56c-44.5-44.54-103.66-69.08-166.7-69.1-129.88 0-235.6 105.7-235.64 235.62a235.24 235.24 0 0031.45 117.81L163.5 641l124.92-32.77a235.42 235.42 0 00112.61 28.68h.1c129.87 0 235.59-105.71 235.64-235.64a234.22 234.22 0 00-68.95-166.7"/></g></svg>